<svg width="277" height="60" viewBox="0 0 277 60" fill="none" xmlns="http://www.w3.org/2000/svg">
<path d="M95.6846 18.061H102.321V43.7824H95.6846V40.7473C93.6955 43.2509 90.9004 44.5026 87.2994 44.5026C83.8699 44.5026 80.9205 43.1994 78.4513 40.593C76.0163 37.9523 74.7988 34.7285 74.7988 30.9217C74.7988 27.115 76.0163 23.9084 78.4513 21.3019C80.9205 18.6612 83.8699 17.3408 87.2994 17.3408C90.9004 17.3408 93.6955 18.5926 95.6846 21.0962V18.061ZM83.4412 36.1689C84.7787 37.5064 86.4764 38.1752 88.5341 38.1752C90.5918 38.1752 92.2894 37.5064 93.6269 36.1689C94.9987 34.7971 95.6846 33.048 95.6846 30.9217C95.6846 28.7954 94.9987 27.0635 93.6269 25.726C92.2894 24.3542 90.5918 23.6683 88.5341 23.6683C86.4764 23.6683 84.7787 24.3542 83.4412 25.726C82.1037 27.0635 81.435 28.7954 81.435 30.9217C81.435 33.048 82.1037 34.7971 83.4412 36.1689Z" fill="white"/>
<path d="M127.835 7.77246H134.471V43.7824H127.835V40.7473C125.88 43.2509 123.102 44.5026 119.501 44.5026C116.038 44.5026 113.071 43.1994 110.602 40.593C108.167 37.9523 106.949 34.7285 106.949 30.9217C106.949 27.115 108.167 23.9084 110.602 21.3019C113.071 18.6612 116.038 17.3408 119.501 17.3408C123.102 17.3408 125.88 18.5926 127.835 21.0962V7.77246ZM115.592 36.1689C116.964 37.5064 118.678 38.1752 120.736 38.1752C122.794 38.1752 124.491 37.5064 125.829 36.1689C127.166 34.7971 127.835 33.048 127.835 30.9217C127.835 28.7954 127.166 27.0635 125.829 25.726C124.491 24.3542 122.794 23.6683 120.736 23.6683C118.678 23.6683 116.964 24.3542 115.592 25.726C114.254 27.0635 113.586 28.7954 113.586 30.9217C113.586 33.048 114.254 34.7971 115.592 36.1689Z" fill="white"/>
<path d="M164.256 43.7824H156.591L151.035 35.9631L145.427 43.7824H137.762L147.176 30.6645L138.174 18.061H145.839L151.035 25.3145L156.23 18.061H163.844L154.841 30.6131L164.256 43.7824Z" fill="white"/>
<path d="M172.082 25.3659C172.082 26.0518 172.528 26.6177 173.42 27.0635C174.346 27.4751 175.46 27.8523 176.763 28.1953C178.067 28.5039 179.37 28.9155 180.673 29.4299C181.976 29.91 183.074 30.7331 183.965 31.8992C184.891 33.0652 185.354 34.5227 185.354 36.2718C185.354 38.9125 184.36 40.9531 182.371 42.3935C180.416 43.7996 177.964 44.5026 175.014 44.5026C169.733 44.5026 166.132 42.4621 164.211 38.3809L169.973 35.1401C170.727 37.3692 172.408 38.4838 175.014 38.4838C177.381 38.4838 178.564 37.7465 178.564 36.2718C178.564 35.5859 178.101 35.0372 177.175 34.6256C176.283 34.1798 175.186 33.7854 173.883 33.4424C172.579 33.0995 171.276 32.6708 169.973 32.1564C168.67 31.6419 167.555 30.836 166.629 29.7386C165.737 28.6068 165.292 27.2007 165.292 25.5202C165.292 22.9824 166.218 20.9933 168.07 19.5529C169.956 18.0782 172.288 17.3408 175.066 17.3408C177.158 17.3408 179.061 17.821 180.776 18.7812C182.491 19.7072 183.845 21.0447 184.84 22.7938L179.181 25.8803C178.358 24.1313 176.986 23.2568 175.066 23.2568C174.208 23.2568 173.488 23.4454 172.905 23.8226C172.356 24.1999 172.082 24.7143 172.082 25.3659Z" fill="white"/>
<path d="M203.581 24.4399H197.768V35.1401C197.768 36.0317 197.991 36.6833 198.437 37.0949C198.883 37.5064 199.534 37.7465 200.392 37.8151C201.249 37.8494 202.312 37.8322 203.581 37.7636V43.7824C199.02 44.2969 195.796 43.8682 193.91 42.4964C192.058 41.1246 191.132 38.6725 191.132 35.1401V24.4399H186.656V18.061H191.132V12.8653L197.768 10.859V18.061H203.581V24.4399Z" fill="white"/>
<path d="M227.005 18.061H233.641V43.7824H227.005V40.7473C225.015 43.2509 222.22 44.5026 218.619 44.5026C215.19 44.5026 212.24 43.1994 209.771 40.593C207.336 37.9523 206.119 34.7285 206.119 30.9217C206.119 27.115 207.336 23.9084 209.771 21.3019C212.24 18.6612 215.19 17.3408 218.619 17.3408C222.22 17.3408 225.015 18.5926 227.005 21.0962V18.061ZM214.761 36.1689C216.099 37.5064 217.796 38.1752 219.854 38.1752C221.912 38.1752 223.609 37.5064 224.947 36.1689C226.319 34.7971 227.005 33.048 227.005 30.9217C227.005 28.7954 226.319 27.0635 224.947 25.726C223.609 24.3542 221.912 23.6683 219.854 23.6683C217.796 23.6683 216.099 24.3542 214.761 25.726C213.424 27.0635 212.755 28.7954 212.755 30.9217C212.755 33.048 213.424 34.7971 214.761 36.1689Z" fill="white"/>
<path d="M246.294 22.4851C246.912 20.8389 247.923 19.6043 249.329 18.7812C250.77 17.9581 252.365 17.5466 254.114 17.5466V24.9544C252.09 24.7143 250.273 25.1258 248.661 26.189C247.083 27.2521 246.294 29.0184 246.294 31.4876V43.7824H239.658V18.061H246.294V22.4851Z" fill="white"/>
<path d="M263.313 25.3659C263.313 26.0518 263.759 26.6177 264.65 27.0635C265.576 27.4751 266.691 27.8523 267.994 28.1953C269.297 28.5039 270.6 28.9155 271.904 29.4299C273.207 29.91 274.304 30.7331 275.196 31.8992C276.122 33.0652 276.585 34.5227 276.585 36.2718C276.585 38.9125 275.59 40.9531 273.601 42.3935C271.646 43.7996 269.194 44.5026 266.245 44.5026C260.964 44.5026 257.362 42.4621 255.442 38.3809L261.204 35.1401C261.958 37.3692 263.639 38.4838 266.245 38.4838C268.611 38.4838 269.795 37.7465 269.795 36.2718C269.795 35.5859 269.332 35.0372 268.406 34.6256C267.514 34.1798 266.416 33.7854 265.113 33.4424C263.81 33.0995 262.507 32.6708 261.204 32.1564C259.9 31.6419 258.786 30.836 257.86 29.7386C256.968 28.6068 256.522 27.2007 256.522 25.5202C256.522 22.9824 257.448 20.9933 259.3 19.5529C261.186 18.0782 263.518 17.3408 266.296 17.3408C268.388 17.3408 270.292 17.821 272.007 18.7812C273.721 19.7072 275.076 21.0447 276.071 22.7938L270.412 25.8803C269.589 24.1313 268.217 23.2568 266.296 23.2568C265.439 23.2568 264.719 23.4454 264.136 23.8226C263.587 24.1999 263.313 24.7143 263.313 25.3659Z" fill="white"/>
<path d="M7.95149 30.0893C13.8673 30.3126 18.6113 35.0461 18.8324 40.9514L19.544 58.1614L20.2571 40.9514C20.4807 35.0461 25.2222 30.3101 31.138 30.0893H53.8513C55.8497 30.0893 56.849 30.0893 57.7105 30.5951C58.3812 30.9887 59.0707 31.8308 59.3244 32.5659C59.6502 33.5103 59.4867 34.3234 59.1595 35.9495C56.3996 49.6681 44.2824 60 29.7509 60C15.2195 59.9998 3.10214 49.668 0.342206 35.9495C0.0150527 34.3234 -0.148524 33.5103 0.177348 32.5659C0.431007 31.8308 1.12054 30.9887 1.79119 30.5951C2.65277 30.0893 3.65199 30.0893 5.65042 30.0893H7.95149Z" fill="url(#paint0_linear_247_275)"/>
<path d="M29.7509 0C43.7653 0 55.5335 9.60942 58.8288 22.5988C59.2494 24.2566 59.4597 25.0855 59.1583 26.069C58.9245 26.8321 58.2342 27.7195 57.552 28.1338C56.6728 28.6677 55.6406 28.6677 53.5762 28.6677H31.138C25.2222 28.4445 20.4782 23.711 20.2571 17.8056L19.544 2.40752L18.8324 17.8056C18.6088 23.7109 13.8673 28.4469 7.95149 28.6677H5.92556C3.86117 28.6677 2.82897 28.6677 1.94975 28.1338C1.26756 27.7195 0.577223 26.8321 0.343401 26.069C0.0420462 25.0855 0.25233 24.2566 0.672899 22.5988C3.96824 9.60952 15.7365 0.000164017 29.7509 0Z" fill="url(#paint1_linear_247_275)"/>
<defs>
<linearGradient id="paint0_linear_247_275" x1="0" y1="60" x2="60.4348" y2="59.0453" gradientUnits="userSpaceOnUse">
<stop stop-color="#20A0E5"/>
<stop offset="1" stop-color="#11C9EB"/>
</linearGradient>
<linearGradient id="paint1_linear_247_275" x1="0" y1="60" x2="60.4348" y2="59.0453" gradientUnits="userSpaceOnUse">
<stop stop-color="#20A0E5"/>
<stop offset="1" stop-color="#11C9EB"/>
</linearGradient>
</defs>
</svg>
