<?xml version="1.0" standalone="no"?>
<!DOCTYPE svg PUBLIC "-//W3C//DTD SVG 20010904//EN"
 "http://www.w3.org/TR/2001/REC-SVG-20010904/DTD/svg10.dtd">
<svg version="1.0" xmlns="http://www.w3.org/2000/svg"
 width="512.000000pt" height="512.000000pt" viewBox="0 0 512.000000 512.000000"
 preserveAspectRatio="xMidYMid meet">

<g transform="translate(0.000000,512.000000) scale(0.100000,-0.100000)"
fill="#000000" stroke="none">
<path d="M1868 3559 c-139 -20 -257 -126 -293 -265 -13 -49 -15 -162 -15 -724
0 -684 3 -748 40 -820 31 -61 105 -134 167 -165 79 -41 200 -47 284 -16 64 24
135 82 179 146 57 83 60 111 60 642 l0 483 252 0 251 0 -174 177 c-318 322
-339 344 -339 354 0 5 -6 9 -12 9 -7 0 -24 16 -37 36 -75 109 -214 164 -363
143z"/>
</g>
</svg>
