<?xml version="1.0" standalone="no"?>
<!DOCTYPE svg PUBLIC "-//W3C//DTD SVG 20010904//EN"
 "http://www.w3.org/TR/2001/REC-SVG-20010904/DTD/svg10.dtd">
<svg version="1.0" xmlns="http://www.w3.org/2000/svg"
 width="736.000000pt" height="736.000000pt" viewBox="0 0 736.000000 736.000000"
 preserveAspectRatio="xMidYMid meet">

<g transform="translate(0.000000,736.000000) scale(0.100000,-0.100000)"
fill="#000000" stroke="none">
<path d="M3254 5428 c-5 -7 -83 -168 -175 -358 -244 -506 -642 -1335 -714
-1485 -34 -71 -227 -473 -428 -891 -202 -419 -367 -765 -367 -768 0 -4 793 -5
1763 -4 l1762 3 80 23 c137 38 255 104 351 194 180 171 264 362 264 599 0 362
-221 665 -570 781 l-95 32 -267 4 c-148 2 -268 2 -268 -1 0 -2 110 -233 245
-513 135 -279 245 -514 245 -521 0 -19 -663 -19 -677 0 -5 6 -48 93 -95 192
-47 99 -174 364 -282 588 -108 224 -196 412 -196 417 0 6 115 10 298 10 164 0
325 5 358 11 331 58 582 282 680 606 24 77 27 106 28 228 0 162 -14 232 -75
363 -110 238 -302 399 -565 473 -77 22 -95 23 -685 27 -496 3 -608 1 -615 -10z
m655 -456 c47 -97 123 -256 169 -353 l84 -176 -110 -229 c-61 -126 -147 -305
-192 -399 -45 -93 -160 -332 -255 -530 -95 -198 -218 -453 -273 -567 l-101
-208 -335 0 c-184 0 -337 3 -339 8 -2 4 55 129 127 277 72 149 247 511 388
805 141 294 318 663 394 820 75 157 177 368 226 470 49 102 96 202 105 223 8
20 18 37 22 37 3 -1 44 -81 90 -178z"/>
</g>
</svg>
